<svg width="18" height="18" viewBox="0 0 18 18" fill="none" xmlns="http://www.w3.org/2000/svg">
<g id="Admin">
<g id="user-octagon">
<path id="Vector" d="M8.70007 16.6558C8.22967 16.6558 7.75225 16.5364 7.331 16.2907L3.16063 13.8825C2.31813 13.3911 1.79156 12.4854 1.79156 11.5095V6.70727C1.79156 5.73138 2.31813 4.82569 3.16063 4.33423L7.331 1.92609C8.1735 1.43463 9.21961 1.43463 10.0691 1.92609L14.2395 4.33423C15.082 4.82569 15.6086 5.73138 15.6086 6.70727V11.5095C15.6086 12.4854 15.082 13.3911 14.2395 13.8825L10.0691 16.2907C9.64788 16.5364 9.17046 16.6558 8.70007 16.6558ZM8.70007 2.61412C8.41221 2.61412 8.11734 2.69135 7.85757 2.83879L3.68719 5.24693C3.16765 5.54883 2.84469 6.10348 2.84469 6.70727V11.5095C2.84469 12.1063 3.16765 12.6679 3.68719 12.9698L7.85757 15.378C8.37711 15.6799 9.02302 15.6799 9.54256 15.378L13.7129 12.9698C14.2325 12.6679 14.5554 12.1133 14.5554 11.5095V6.70727C14.5554 6.1105 14.2325 5.54883 13.7129 5.24693L9.54256 2.83879C9.28279 2.69135 8.98792 2.61412 8.70007 2.61412Z" fill="#111827"/>
<path id="Vector_2" d="M8.69989 8.93297C7.50635 8.93297 6.53748 7.96408 6.53748 6.77054C6.53748 5.577 7.50635 4.60815 8.69989 4.60815C9.89343 4.60815 10.8623 5.577 10.8623 6.77054C10.8623 7.96408 9.89343 8.93297 8.69989 8.93297ZM8.69989 5.66128C8.08908 5.66128 7.5906 6.15973 7.5906 6.77054C7.5906 7.38135 8.08908 7.87984 8.69989 7.87984C9.3107 7.87984 9.80918 7.38135 9.80918 6.77054C9.80918 6.15973 9.3107 5.66128 8.69989 5.66128Z" fill="#111827"/>
<path id="Vector_3" d="M11.5083 12.9067C11.2204 12.9067 10.9817 12.668 10.9817 12.3801C10.9817 11.4113 9.95668 10.6179 8.69995 10.6179C7.44322 10.6179 6.41818 11.4113 6.41818 12.3801C6.41818 12.668 6.17947 12.9067 5.89161 12.9067C5.60376 12.9067 5.36505 12.668 5.36505 12.3801C5.36505 10.8285 6.86049 9.56482 8.69995 9.56482C10.5394 9.56482 12.0348 10.8285 12.0348 12.3801C12.0348 12.668 11.7961 12.9067 11.5083 12.9067Z" fill="#111827"/>
</g>
</g>
</svg>
