<svg width="18" height="18" viewBox="0 0 18 18" fill="none" xmlns="http://www.w3.org/2000/svg">
<g id="Order">
<g id="vuesax/outline/receipt-2">
<g id="receipt-2">
<path id="Vector" d="M8.69996 16.3391C8.15233 16.3391 7.61875 16.0582 7.25367 15.5668L6.54456 14.6189C6.39713 14.4224 6.20054 14.31 5.98992 14.296C5.77929 14.289 5.56867 14.3802 5.40017 14.5558L4.99998 14.1977L5.38613 14.5558C4.37513 15.637 3.59581 15.5527 3.22371 15.4053C2.84458 15.2578 2.20569 14.7734 2.20569 13.2148V5.30933C2.20569 2.19208 3.10436 1.24426 6.04608 1.24426H11.3538C14.2956 1.24426 15.1942 2.19208 15.1942 5.30933V13.2148C15.1942 14.7664 14.5553 15.2508 14.1762 15.4053C13.8041 15.5527 13.0318 15.637 12.0138 14.5558C11.8453 14.3732 11.6347 14.2749 11.417 14.296C11.2064 14.31 11.0028 14.4224 10.8554 14.6189L10.1463 15.5668C9.78117 16.0582 9.24758 16.3391 8.69996 16.3391ZM5.94779 13.2358C5.97588 13.2358 6.01098 13.2358 6.03906 13.2358C6.55861 13.2639 7.05006 13.5377 7.38004 13.9801L8.08915 14.9279C8.43317 15.3842 8.95973 15.3842 9.30375 14.9279L10.0129 13.9801C10.3499 13.5377 10.8343 13.2639 11.3609 13.2358C11.8804 13.2078 12.3999 13.4254 12.7791 13.8326C13.3126 14.4013 13.6567 14.4715 13.783 14.4224C13.9515 14.3522 14.1341 13.945 14.1341 13.2148V5.30933C14.1341 2.7748 13.6918 2.29739 11.3468 2.29739H6.04608C3.70113 2.29739 3.25881 2.7748 3.25881 5.30933V13.2148C3.25881 13.952 3.44136 14.3592 3.60986 14.4224C3.72921 14.4715 4.08025 14.4013 4.61383 13.8326C4.99296 13.4465 5.46336 13.2358 5.94779 13.2358Z" fill="#111827"/>
<path id="Vector_2" d="M11.6698 8.61611H7.8083C7.52045 8.61611 7.28174 8.3774 7.28174 8.08955C7.28174 7.8017 7.52045 7.56299 7.8083 7.56299H11.6698C11.9576 7.56299 12.1963 7.8017 12.1963 8.08955C12.1963 8.3774 11.9576 8.61611 11.6698 8.61611Z" fill="#111827"/>
<path id="Vector_3" d="M11.6698 5.80776H7.8083C7.52045 5.80776 7.28174 5.56906 7.28174 5.2812C7.28174 4.99335 7.52045 4.75464 7.8083 4.75464H11.6698C11.9576 4.75464 12.1963 4.99335 12.1963 5.2812C12.1963 5.56906 11.9576 5.80776 11.6698 5.80776Z" fill="#111827"/>
<path id="Vector_4" d="M5.73718 5.98327C5.35103 5.98327 5.0351 5.66733 5.0351 5.28118C5.0351 4.89504 5.35103 4.5791 5.73718 4.5791C6.12332 4.5791 6.43926 4.89504 6.43926 5.28118C6.43926 5.66733 6.12332 5.98327 5.73718 5.98327Z" fill="#111827"/>
<path id="Vector_5" d="M5.73718 8.79162C5.35103 8.79162 5.0351 8.47568 5.0351 8.08953C5.0351 7.70339 5.35103 7.38745 5.73718 7.38745C6.12332 7.38745 6.43926 7.70339 6.43926 8.08953C6.43926 8.47568 6.12332 8.79162 5.73718 8.79162Z" fill="#111827"/>
</g>
</g>
</g>
</svg>
