<svg width="18" height="18" viewBox="0 0 18 18" fill="none" xmlns="http://www.w3.org/2000/svg">
<g id="setting">
<g id="vuesax/outline/setting-3">
<g id="setting-3">
<path id="Vector" d="M10.8062 16.314H6.59367C2.78136 16.314 1.15253 14.6852 1.15253 10.8729V6.66038C1.15253 2.84807 2.78136 1.21924 6.59367 1.21924H10.8062C14.6185 1.21924 16.2473 2.84807 16.2473 6.66038V10.8729C16.2473 14.6852 14.6185 16.314 10.8062 16.314ZM6.59367 2.27236C3.35707 2.27236 2.20565 3.42378 2.20565 6.66038V10.8729C2.20565 14.1095 3.35707 15.2609 6.59367 15.2609H10.8062C14.0428 15.2609 15.1942 14.1095 15.1942 10.8729V6.66038C15.1942 3.42378 14.0428 2.27236 10.8062 2.27236H6.59367Z" fill="#111827"/>
<path id="Vector_2" d="M11.2134 13.8567C10.9255 13.8567 10.6868 13.618 10.6868 13.3301V10.592C10.6868 10.3041 10.9255 10.0654 11.2134 10.0654C11.5012 10.0654 11.74 10.3041 11.74 10.592V13.3301C11.74 13.618 11.5012 13.8567 11.2134 13.8567Z" fill="#111827"/>
<path id="Vector_3" d="M11.2134 6.0987C10.9255 6.0987 10.6868 5.85999 10.6868 5.57214V4.20308C10.6868 3.91522 10.9255 3.67651 11.2134 3.67651C11.5012 3.67651 11.74 3.91522 11.74 4.20308V5.57214C11.74 5.85999 11.5012 6.0987 11.2134 6.0987Z" fill="#111827"/>
<path id="Vector_4" d="M11.2134 9.74949C9.91451 9.74949 8.86139 8.69637 8.86139 7.39751C8.86139 6.09866 9.91451 5.04553 11.2134 5.04553C12.5122 5.04553 13.5653 6.09866 13.5653 7.39751C13.5653 8.69637 12.5052 9.74949 11.2134 9.74949ZM11.2134 6.09866C10.4972 6.09866 9.91451 6.68139 9.91451 7.39751C9.91451 8.11364 10.4972 8.69637 11.2134 8.69637C11.9295 8.69637 12.5122 8.11364 12.5122 7.39751C12.5122 6.68139 11.9225 6.09866 11.2134 6.09866Z" fill="#111827"/>
<path id="Vector_5" d="M6.18647 13.8568C5.89862 13.8568 5.65991 13.618 5.65991 13.3302V11.9611C5.65991 11.6733 5.89862 11.4346 6.18647 11.4346C6.47433 11.4346 6.71304 11.6733 6.71304 11.9611V13.3302C6.71304 13.618 6.48135 13.8568 6.18647 13.8568Z" fill="#111827"/>
<path id="Vector_6" d="M6.18647 7.46776C5.89862 7.46776 5.65991 7.22906 5.65991 6.9412V4.20308C5.65991 3.91522 5.89862 3.67651 6.18647 3.67651C6.47433 3.67651 6.71304 3.91522 6.71304 4.20308V6.9412C6.71304 7.22906 6.48135 7.46776 6.18647 7.46776Z" fill="#111827"/>
<path id="Vector_7" d="M6.18651 12.4876C4.88766 12.4876 3.83453 11.4345 3.83453 10.1357C3.83453 8.83682 4.88766 7.78369 6.18651 7.78369C7.48537 7.78369 8.53849 8.83682 8.53849 10.1357C8.53849 11.4345 7.48537 12.4876 6.18651 12.4876ZM6.18651 8.83682C5.47039 8.83682 4.88766 9.41955 4.88766 10.1357C4.88766 10.8518 5.47039 11.4345 6.18651 11.4345C6.90264 11.4345 7.48537 10.8518 7.48537 10.1357C7.48537 9.41955 6.90966 8.83682 6.18651 8.83682Z" fill="#111827"/>
</g>
</g>
</g>
</svg>
