<svg width="18" height="17" viewBox="0 0 18 17" fill="none" xmlns="http://www.w3.org/2000/svg">
<g id="Marketplace - store">
<g id="vuesax/linear/shop">
<g id="shop">
<path id="Vector" d="M2.38824 7.90247V11.0548C2.38824 14.2072 3.65199 15.4709 6.80435 15.4709H10.5886C13.7409 15.4709 15.0047 14.2072 15.0047 11.0548V7.90247" stroke="#111827" stroke-width="1.05313" stroke-linecap="round" stroke-linejoin="round"/>
<path id="Vector_2" d="M8.69995 8.45003C9.98477 8.45003 10.9326 7.40393 10.8062 6.11912L10.3428 1.4292H7.0641L6.5937 6.11912C6.46733 7.40393 7.41514 8.45003 8.69995 8.45003Z" stroke="#111827" stroke-width="1.05313" stroke-linecap="round" stroke-linejoin="round"/>
<path id="Vector_3" d="M13.1301 8.45003C14.5483 8.45003 15.5873 7.29862 15.4469 5.88743L15.2503 3.9567C14.9976 2.13128 14.2955 1.4292 12.4561 1.4292H10.3147L10.8062 6.3508C10.9255 7.50924 11.9716 8.45003 13.1301 8.45003Z" stroke="#111827" stroke-width="1.05313" stroke-linecap="round" stroke-linejoin="round"/>
<path id="Vector_4" d="M4.23474 8.45003C5.39318 8.45003 6.43928 7.50924 6.55161 6.3508L6.70607 4.7992L7.04307 1.4292H4.90172C3.06226 1.4292 2.36018 2.13128 2.10743 3.9567L1.91786 5.88743C1.77745 7.29862 2.81653 8.45003 4.23474 8.45003Z" stroke="#111827" stroke-width="1.05313" stroke-linecap="round" stroke-linejoin="round"/>
<path id="Vector_5" d="M8.69991 11.9604C7.52743 11.9604 6.9447 12.5432 6.9447 13.7157V15.4709H10.4551V13.7157C10.4551 12.5432 9.87239 11.9604 8.69991 11.9604Z" stroke="#111827" stroke-width="1.05313" stroke-linecap="round" stroke-linejoin="round"/>
</g>
</g>
</g>
</svg>
