<svg width="40" height="34" viewBox="0 0 40 34" fill="none" xmlns="http://www.w3.org/2000/svg">
<g id="Logo">
<path id="Shape" fill-rule="evenodd" clip-rule="evenodd" d="M0.657125 15.1C2.82581 6.38336 10.6533 0.264709 19.6357 0.264709C28.6181 0.264709 36.4456 6.38336 38.6143 15.1H36.9C34.0081 15.0574 31.1755 15.9217 28.8 17.5715C28.6629 17.6707 28.5198 17.7614 28.3714 17.8429H28.1714C28.0231 17.7614 27.8799 17.6707 27.7428 17.5715C22.8407 14.2751 16.4307 14.2751 11.5286 17.5715C11.3915 17.6707 11.2483 17.7614 11.1 17.8429H10.9C10.7516 17.7614 10.6085 17.6707 10.4714 17.5715C8.09589 15.9217 5.26329 15.0574 2.37141 15.1H0.657125ZM33.8143 24.0572C34.6943 23.3718 35.785 23.0133 36.9 23.0429H39.2V18.4572H36.9C34.936 18.4334 33.0169 19.0447 31.4286 20.2C29.5938 21.5527 27.0919 21.5527 25.2571 20.2C21.9214 17.878 17.4928 17.878 14.1571 20.2C12.3223 21.5527 9.82048 21.5527 7.9857 20.2C6.3777 19.0299 4.43112 18.4179 2.44284 18.4572H0.0714111V23.0429H2.37141C3.48642 23.0133 4.57711 23.3718 5.45713 24.0572C8.78704 26.3809 13.2129 26.3809 16.5428 24.0572C17.424 23.3739 18.5139 23.0157 19.6286 23.0429C20.7439 23.0109 21.8354 23.3697 22.7143 24.0572C26.05 26.3792 30.4786 26.3792 33.8143 24.0572ZM36.9 31.2429C35.785 31.2133 34.6943 31.5718 33.8143 32.2572C30.4786 34.5792 26.05 34.5792 22.7143 32.2572C21.8354 31.5697 20.7439 31.2109 19.6286 31.2429C18.5139 31.2157 17.424 31.5739 16.5428 32.2572C13.2129 34.5809 8.78704 34.5809 5.45713 32.2572C4.57711 31.5718 3.48642 31.2133 2.37141 31.2429H0.0714111V26.6572H2.44284C4.43112 26.6179 6.3777 27.2299 7.9857 28.4C9.82048 29.7527 12.3223 29.7527 14.1571 28.4C17.4928 26.078 21.9214 26.078 25.2571 28.4C27.0919 29.7527 29.5938 29.7527 31.4286 28.4C33.0169 27.2447 34.936 26.6334 36.9 26.6572H39.2V31.2429H36.9Z" fill="#FFD2DD"/>
</g>
</svg>
