<svg width="22" height="18" viewBox="0 0 22 18" fill="none" xmlns="http://www.w3.org/2000/svg">
<path id="Vector" fill-rule="evenodd" clip-rule="evenodd" d="M21.9392 10.9987C21.9378 14.4903 19.0783 17.3167 15.552 17.3167C14.7062 17.3179 13.8685 17.1523 13.0871 16.8293C12.3057 16.5064 11.5961 16.0325 10.9989 15.435C10.4025 16.0327 9.69326 16.5068 8.91222 16.8297C8.13119 17.1527 7.29378 17.3182 6.4483 17.3167C2.91795 17.3167 0.0625 14.4887 0.0625 10.9989C0.0625 7.50728 2.91795 4.68013 6.4483 4.68013C7.41361 4.68013 8.3338 4.89017 9.15281 5.27344V2.28588C9.15281 1.2804 9.97865 0.466675 10.9921 0.466675C12.0104 0.466675 12.833 1.2804 12.833 2.28588V10.9987C12.833 12.4785 14.0581 13.6714 15.5517 13.6714C17.0454 13.6714 18.2565 12.4785 18.2579 10.9987V8.68681C18.2579 7.6835 19.0821 6.86542 20.0991 6.86542C21.1106 6.86542 21.9375 7.6835 21.9375 8.68681L21.9392 10.9987ZM3.7427 10.9987C3.7427 12.4785 4.95467 13.6714 6.4483 13.6714C7.94248 13.6714 9.15281 12.4785 9.15281 10.9987C9.15281 9.51853 7.94248 8.32155 6.4483 8.32155C4.95467 8.32155 3.7427 9.51853 3.7427 10.9987Z" fill="#DB551B"/>
</svg>
